<svg width="246" height="155" viewBox="0 0 246 155" fill="none" xmlns="http://www.w3.org/2000/svg">
<path d="M75.6 52.2C79.6 46.2 81.6 40.6 81.6 35.4C81.6 30.2 80.1333 26.0667 77.2 23C74.2667 19.9333 70.4 18.4 65.6 18.4C60.8 18.4 56.9333 19.6 54 22C51.0667 24.2667 49.6 27.9333 49.6 33C49.6 37.9333 53.0667 46.8667 60 59.8C66.9333 72.7333 71.3333 81.0667 73.2 84.8C78.2667 94.9333 80.8 104.733 80.8 114.2C80.8 126.067 76.4667 135.733 67.8 143.2C59.2667 150.533 49.1333 154.2 37.4 154.2C25.8 154.2 16.6667 150.6 10 143.4C3.33333 136.067 5.66244e-07 127.533 5.66244e-07 117.8C5.66244e-07 99.8 11.1333 84.9333 33.4 73.2C24.3333 55.3333 19.8 42.8667 19.8 35.8C19.8 25.9333 23.7333 17.6 31.6 10.8C39.6 3.86666 49.3333 0.399998 60.8 0.399998C72.4 0.399998 81.2667 3.33333 87.4 9.19999C93.5333 15.0667 96.6 22.5333 96.6 31.6C96.6 37.6 94.6 44.4667 90.6 52.2H75.6ZM23.2 130.2C26.8 134.067 31.1333 136 36.2 136C41.4 136 45.4 134.533 48.2 131.6C51.1333 128.533 52.6 124.067 52.6 118.2C52.6 112.867 50.5333 106.333 46.4 98.6C45.8667 97.5333 44.8667 95.6 43.4 92.8C41.9333 89.8667 40.8667 87.8 40.2 86.6C25.2667 94.3333 17.8 104.067 17.8 115.8C17.8 121.8 19.6 126.6 23.2 130.2ZM239.056 110L245.456 119.8C238.923 142.733 225.39 154.2 204.856 154.2C200.19 154.2 196.123 153.333 192.656 151.6C189.323 149.867 186.79 147.8 185.056 145.4C183.323 143 181.923 139.933 180.856 136.2C179.39 130.6 178.59 123.2 178.456 114C178.456 104.8 177.323 98.4667 175.056 95C172.923 91.5333 168.79 89.6 162.656 89.2L164.856 72.2C165.123 72.2 165.323 72.2 165.456 72.2C173.19 72.2 179.59 70 184.656 65.6C190.123 60.6667 192.856 54.3333 192.856 46.6C192.856 38.8667 189.19 32.3333 181.856 27C174.656 21.6667 165.323 19 153.856 19C139.056 19 127.656 22.6667 119.656 30C115.39 34 113.256 38.8 113.256 44.4C113.256 51.4667 118.656 55.7333 129.456 57.2L126.656 72.2C118.523 71.8 111.323 69.0667 105.056 64C98.7896 58.9333 95.6563 52.4 95.6563 44.4C95.6563 30.4 101.523 19.6667 113.256 12.2C124.99 4.59999 139.856 0.799993 157.856 0.799993C169.456 0.799993 179.656 2.19999 188.456 5C203.523 10.0667 213.523 18.8667 218.456 31.4C220.056 35.8 220.856 39.4 220.856 42.2C220.856 44.8667 220.856 46.6667 220.856 47.6C220.323 54.9333 217.59 62.1333 212.656 69.2C207.856 76.2667 200.59 81.1333 190.856 83.8C196.723 85 200.723 87.5333 202.856 91.4C204.99 95.2667 206.123 101.133 206.256 109C206.39 122.467 206.99 130.667 208.056 133.6C209.256 136.4 211.656 137.8 215.256 137.8C224.99 137.8 232.923 128.533 239.056 110ZM116.456 154.2C109.39 154.2 103.723 152.067 99.4563 147.8C95.1896 143.533 93.0563 138.267 93.0563 132C93.0563 115.733 104.99 102.133 128.856 91.2C133.656 53.8667 136.123 34.7333 136.256 33.8C141.856 30.2 148.19 28.4 155.256 28.4C158.19 28.4 161.523 28.8 165.256 29.6L152.656 115C148.656 141.133 136.59 154.2 116.456 154.2ZM107.856 129.6C107.856 133.867 110.123 136 114.656 136C119.99 136 123.39 131.2 124.856 121.6L126.656 108C114.123 115.333 107.856 122.533 107.856 129.6Z" fill="white"/>
</svg>
